<svg t="1574315654906" class="icon" viewBox="0 0 1024 1024" version="1.1" xmlns="http://www.w3.org/2000/svg" p-id="6245" width="16" height="16"><path d="M919.3 116.8l-80.6 80.6C758 116.1 646.2 65.6 522.6 65.4 276.4 64.9 75.3 265.1 74.9 511.3c-0.4 247.1 199.8 447.6 446.8 447.6 131.9 0 250.4-57.1 332.2-148 37.2-41.4 7.9-107.4-47.8-107.9-18.5-0.2-36.2 7.5-48.5 21.2-58.1 64.5-142.3 105.1-235.9 105.1-176.1 0-318.8-143.5-317.3-320 1.5-176.2 145.1-316.6 321.4-314.4 86.6 1.1 164.8 36.9 221.4 94.1l-79.6 79.6c-11.8 11.8-3.4 31.9 13.2 31.9h251.7c10.3 0 18.7-8.3 18.7-18.7V130c0-16.6-20.1-25-31.9-13.2z" fill="#555555" p-id="6246"></path><path d="M511.9 288H510c-25.3 0-46.1 20.7-46.1 46.1v196c0 25.3 20.7 46.1 46.1 46.1h196c25.3 0 46.1-20.7 46.1-46.1v-1.9c0-25.4-20.8-46.1-46.1-46.1H558v-148c0-25.3-20.7-46.1-46.1-46.1z" fill="#555555" p-id="6247"></path></svg>